<?xml version="1.0" ?><svg style="enable-background:new 0 0 512 512;" version="1.1" viewBox="0 0 512 512" xml:space="preserve" xmlns="http://www.w3.org/2000/svg" xmlns:xlink="http://www.w3.org/1999/xlink"><style type="text/css">
	.st0{display:none;}
	.st1{fill:#DEFFFE;}
	.st2{fill:#004358;}
	.st3{fill:#04BFBF;}
	.st4{fill:#BEDB39;}
</style><g id="Layer_1"/><g class="st0" id="Layer_3"/><g class="st0" id="Layer_5"/><g id="Layer_4"><g><path class="st1" d="M106.429,188.219c15.021-1.199,34.201-4.805,44.9-14.931c18.791,18.668,47.603,23.72,73.307,23.719    c11.785-0.001,22.917-1.064,32.127-2.365l-1-22.441c-9.01,1.237-19.765,2.225-31.127,2.225    c-25.705,0.001-54.516-5.051-73.307-23.719c-10.739,10.163-30.021,13.758-45.066,14.944L106.429,188.219z"/><path class="st1" d="M15.425,452.973h483.13c0,0,7.304,18.261-38.087,18.261s-432,0-432,0S12.314,468.719,15.425,452.973z"/><g><g><path class="st2" d="M485.235,405.282c-2.762,0-5,2.239-5,5s2.238,5,5,5c3.129,0,6.015,1.273,8.124,3.584      c2.11,2.311,3.115,5.3,2.83,8.416l-2.815,30.808c-0.521,5.701-5.23,10-10.954,10H31.107c-5.724,0-10.434-4.299-10.954-10      l-2.815-30.808c-0.285-3.116,0.72-6.105,2.83-8.416c2.109-2.312,4.995-3.584,8.124-3.584c2.762,0,5-2.239,5-5s-2.238-5-5-5      c-5.888,0-11.541,2.494-15.51,6.843c-3.97,4.348-5.938,10.205-5.403,16.068l2.815,30.808      c0.995,10.883,9.985,19.089,20.913,19.089H482.42c10.928,0,19.918-8.207,20.913-19.089l2.815-30.808      c0.535-5.863-1.434-11.72-5.403-16.068C496.776,407.776,491.123,405.282,485.235,405.282z"/><path class="st2" d="M329.239,428.129c-1.086,5.029-5.607,8.679-10.752,8.679H195.04c-5.145,0-9.666-3.65-10.752-8.679      c-0.583-2.698-3.241-4.416-5.943-3.832c-2.699,0.583-4.415,3.244-3.832,5.943c2.074,9.6,10.707,16.568,20.527,16.568h123.447      c9.82,0,18.453-6.968,20.527-16.568c0.583-2.699-1.133-5.36-3.832-5.943C332.479,423.714,329.823,425.431,329.239,428.129z"/><path class="st2" d="M54.916,415.282h403.695c11.579,0,21-9.42,21-21V201.55c0-2.761-2.238-5-5-5s-5,2.239-5,5v192.732      c0,6.065-4.935,11-11,11H299.38l-6.623-33.964c-6.982-35.8-37.354-62.233-73.311-64.679      c15.36-8.334,27.736-21.478,35.132-37.388c25.595-3.93,45.261-26.101,45.261-52.779v-17.524c0-13.15-6.51-25.405-17.412-32.784      c-7.073-4.566-11.865,8.919-3.496,9.849c6.874,5.594,10.908,13.988,10.908,22.936c0,15.677-12.269,28.536-27.708,29.497v-53.118      c0-2.761-2.238-5-5-5s-5,2.239-5,5v59.749c0,8.703-1.572,17.045-4.437,24.763c-0.417,0.012-0.833,0.032-1.253,0.032h-18.659      c-2.762,0-5,2.239-5,5s2.238,5,5,5h15.258c-12.225,21.79-35.539,36.557-62.25,36.564h-0.039      c-39.34-0.01-71.341-32.018-71.341-71.359v-66.149c0-2.761-2.238-5-5-5s-5,2.239-5,5v59.518      c-15.439-0.961-27.708-13.82-27.708-29.497c0-9.911,5.047-19.213,13.275-24.664c0.181-0.038,0.361-0.086,0.541-0.145      c2.623-0.86,4.053-3.685,3.192-6.309l-0.087-0.27c-0.464-1.443-1.558-2.598-2.973-3.14c-1.416-0.541-3.001-0.413-4.31,0.352      c-12.114,7.075-19.64,20.17-19.64,34.175c0,21.221,16.797,38.587,37.794,39.516c1.214,29.443,18.134,54.901,42.599,68.176      c-35.958,2.446-66.329,28.879-73.311,64.679l-6.623,33.964h-7.245c-6.065,0-11-4.935-11-11V144.327c0-6.065,4.935-11,11-11      h21.001c2.762,0,5-2.239,5-5s-2.238-5-5-5H54.916c-11.579,0-21,9.42-21,21v249.955      C33.916,405.862,43.337,415.282,54.916,415.282z M262.045,238.463c10.425-0.461,19.809-4.976,26.621-12.003      c-3.577,15.121-15.077,27.204-29.864,31.606C260.649,251.809,261.765,245.244,262.045,238.463z M246.122,386.352      c2.762,0,5,2.239,5,5v13.93h-10v-13.93C241.122,388.591,243.36,386.352,246.122,386.352z M110.419,391.352c0-2.761,2.238-5,5-5      s5,2.239,5,5v13.93h-10V391.352z"/><path class="st2" d="M486,47.442H338.134c-11.579,0-21,9.42-21,21v54.885h-31.368c-2.762,0-5,2.239-5,5s2.238,5,5,5h31.368      v32.223c0,6.33,2.926,12.343,7.79,16.299v10.979c0,4.066,2.262,7.717,5.903,9.527c1.513,0.752,3.136,1.123,4.749,1.123      c2.268,0,4.515-0.732,6.409-2.167l19.504-14.763H486c11.579,0,21-9.42,21-21V68.442C507,56.863,497.579,47.442,486,47.442z       M497,165.55c0,6.065-4.935,11-11,11H361.489c-2.179,0-4.298,0.712-6.035,2.027L335.95,193.34      c-0.124,0.094-0.246,0.14-0.374,0.14c-0.095,0-0.192-0.025-0.297-0.077c-0.242-0.121-0.355-0.302-0.355-0.573V181.85      c0-3.01-1.355-5.859-3.69-7.758c-2.567-2.088-4.1-5.281-4.1-8.542V68.442c0-6.065,4.935-11,11-11H486c6.065,0,11,4.935,11,11      V165.55z"/></g><path class="st3" d="M211.869,257.609c4.004,0,7.262,3.257,7.262,7.261s-3.258,7.261-7.262,7.261h-7.825     c-4.004,0-7.262-3.257-7.262-7.261s3.258-7.261,7.262-7.261H211.869L211.869,257.609z M211.869,247.609h-7.825     c-9.519,0-17.262,7.743-17.262,17.261s7.743,17.261,17.262,17.261h7.825c9.519,0,17.262-7.743,17.262-17.261     S221.388,247.609,211.869,247.609L211.869,247.609z"/><g><path class="st4" d="M242.392,327.371l-28.93,32.413l-24.298-10.432l22.505-24.936c1.85-2.05,1.688-5.212-0.362-7.062      c-2.051-1.851-5.212-1.688-7.062,0.362l-23.475,26.011l-22.134-24.525c-1.85-2.049-5.011-2.212-7.062-0.362      c-2.051,1.85-2.212,5.012-0.362,7.062l21.164,23.451l-24.298,10.432l-28.93-32.413c-1.84-2.06-5.001-2.24-7.06-0.401      c-2.061,1.839-2.24,5-0.401,7.06l31.326,35.098c0.97,1.086,2.337,1.67,3.731,1.67c0.664,0,1.335-0.132,1.972-0.406      l27.053-11.615v46.505h10v-46.505l27.053,11.615c1.974,0.849,4.271,0.339,5.703-1.265l31.326-35.098      c1.839-2.061,1.659-5.221-0.401-7.06C247.392,325.131,244.23,325.311,242.392,327.371z"/><path class="st4" d="M274.646,79.96c-14.082-20.594-35.673-32.617-59.235-32.985c-43.364-0.658-61.651,19.437-67.79,28.806      c-12.855-5.93-50.064-19.986-67.802,6.235c-20.036,29.62-1.404,86.545-0.602,88.954c0.651,1.955,2.436,3.31,4.493,3.413      c5.634,0.28,50.834,1.921,66.568-16.776c18.24,19.969,47.715,25.311,74.044,25.311c29.063,0,54.293-6.512,56.334-7.053      c1.57-0.416,2.841-1.569,3.407-3.092C295.975,140.7,292.454,106.004,274.646,79.96z"/></g><g><g><path class="st3" d="M467.259,103.138H356.875c-2.762,0-5-2.239-5-5s2.238-5,5-5h110.384c2.762,0,5,2.239,5,5       S470.021,103.138,467.259,103.138z"/></g><g><path class="st3" d="M467.259,140.855h-60.392c-2.762,0-5-2.239-5-5s2.238-5,5-5h60.392c2.762,0,5,2.239,5,5       S470.021,140.855,467.259,140.855z"/></g><g><path class="st3" d="M376.629,140.855h-19.754c-2.762,0-5-2.239-5-5s2.238-5,5-5h19.754c2.762,0,5,2.239,5,5       S379.391,140.855,376.629,140.855z"/></g></g></g></g></g></svg>